HIERARCHY
ROOT Hips
{
	OFFSET 0.000000 0.000000 0.000000
	CHANNELS 6 Xposition Yposition Zposition Zrotation Yrotation Xrotation 
	JOINT LHipJoint
	{
		OFFSET 0.000000 0.000000 0.000000
		CHANNELS 3 Zrotation Yrotation Xrotation
		JOINT LeftUpLeg
		{
			OFFSET 1.363060 -1.794630 0.839290
			CHANNELS 3 Zrotation Yrotation Xrotation
			JOINT LeftLeg
			{
				OFFSET 2.448110 -6.726130 0.000000
				CHANNELS 3 Zrotation Yrotation Xrotation
				JOINT LeftFoot
				{
					OFFSET 2.562200 -7.039590 0.000000
					CHANNELS 3 Zrotation Yrotation Xrotation
					JOINT LeftToeBase
					{
						OFFSET 0.157640 -0.433110 2.322550
						CHANNELS 3 Zrotation Yrotation Xrotation
						End Site
						{
							OFFSET 0.000000 0.000000 0.000000
						}
					}
				}
			}
		}
	}
	JOINT RHipJoint
	{
		OFFSET 0.000000 0.000000 0.000000
		CHANNELS 3 Zrotation Yrotation Xrotation
		JOINT RightUpLeg
		{
			OFFSET -1.305520 -1.794630 0.839290
			CHANNELS 3 Zrotation Yrotation Xrotation
			JOINT RightLeg
			{
				OFFSET -2.542530 -6.985550 0.000000
				CHANNELS 3 Zrotation Yrotation Xrotation
				JOINT RightFoot
				{
					OFFSET -2.568260 -7.056230 0.000000
					CHANNELS 3 Zrotation Yrotation Xrotation
					JOINT RightToeBase
					{
						OFFSET -0.164730 -0.452590 2.363150
						CHANNELS 3 Zrotation Yrotation Xrotation
						End Site
						{
							OFFSET 0.000000 0.000000 0.000000
						}
					}
				}
			}
		}
	}
	JOINT LowerBack
	{
		OFFSET 0.000000 0.000000 0.000000
		CHANNELS 3 Zrotation Yrotation Xrotation
		JOINT Spine
		{
			OFFSET 0.028270 2.035590 -0.193380
			CHANNELS 3 Zrotation Yrotation Xrotation
			JOINT Spine1
			{
				OFFSET 0.056720 2.048850 -0.042750
				CHANNELS 3 Zrotation Yrotation Xrotation
				JOINT Neck
				{
					OFFSET 0.000000 0.000000 0.000000
					CHANNELS 3 Zrotation Yrotation Xrotation
					JOINT Neck1
					{
						OFFSET -0.054170 1.746240 0.172020
						CHANNELS 3 Zrotation Yrotation Xrotation
						JOINT Head
						{
							OFFSET 0.104070 1.761360 -0.123970
							CHANNELS 3 Zrotation Yrotation Xrotation
							End Site
							{
								OFFSET 0.000000 0.000000 0.000000
							}
						}
					}
				}
				JOINT LeftShoulder
				{
					OFFSET 0.000000 0.000000 0.000000
					CHANNELS 3 Zrotation Yrotation Xrotation
					JOINT LeftArm
					{
						OFFSET 3.362410 1.200890 -0.311210
						CHANNELS 3 Zrotation Yrotation Xrotation
						JOINT LeftForeArm
						{
							OFFSET 4.983000 -0.000000 -0.000000
							CHANNELS 3 Zrotation Yrotation Xrotation
							JOINT LeftHand
							{
								OFFSET 3.483560 -0.000000 -0.000000
								CHANNELS 3 Zrotation Yrotation Xrotation
								JOINT LeftFingerBase
								{
									OFFSET 0.000000 0.000000 0.000000
									CHANNELS 3 Zrotation Yrotation Xrotation
									JOINT LeftHandIndex1
									{
										OFFSET 0.715260 -0.000000 -0.000000
										CHANNELS 3 Zrotation Yrotation Xrotation
										End Site
										{
											OFFSET 0.000000 0.000000 0.000000
										}
									}
								}
								JOINT LThumb
								{
									OFFSET 0.000000 0.000000 0.000000
									CHANNELS 3 Zrotation Yrotation Xrotation
									End Site
									{
										OFFSET 0.000000 0.000000 0.000000
									}
								}
							}
						}
					}
				}
				JOINT RightShoulder
				{
					OFFSET 0.000000 0.000000 0.000000
					CHANNELS 3 Zrotation Yrotation Xrotation
					JOINT RightArm
					{
						OFFSET -3.136600 1.374050 -0.404650
						CHANNELS 3 Zrotation Yrotation Xrotation
						JOINT RightForeArm
						{
							OFFSET -5.241900 -0.000000 -0.000000
							CHANNELS 3 Zrotation Yrotation Xrotation
							JOINT RightHand
							{
								OFFSET -3.444170 -0.000000 -0.000000
								CHANNELS 3 Zrotation Yrotation Xrotation
								JOINT RightFingerBase
								{
									OFFSET 0.000000 0.000000 0.000000
									CHANNELS 3 Zrotation Yrotation Xrotation
									JOINT RightHandIndex1
									{
										OFFSET -0.622530 -0.000000 -0.000000
										CHANNELS 3 Zrotation Yrotation Xrotation
										End Site
										{
											OFFSET 0.000000 0.000000 0.000000
										}
									}
								}
								JOINT RThumb
								{
									OFFSET 0.000000 0.000000 0.000000
									CHANNELS 3 Zrotation Yrotation Xrotation
									End Site
									{
										OFFSET 0.000000 0.000000 0.000000
									}
								}
							}
						}
					}
				}
			}
		}
	}
}
MOTION
Frames: 9
Frame Time: 0.008333
3.050022 17.655719 -0.030802 10.013054 6.373132 17.422723 -0.504994 -0.519455 -1.251402 -29.979628 -14.041441 -26.792415 1.091011 10.905176 31.171290 -2.413291 9.598933 0.755708 0.078700 1.809700 4.980200 -2.859597 -0.856272 0.071232 -7.634154 37.313665 -39.075657 -12.035023 -20.133246 66.065764 -2.654757 3.606749 24.496441 -4.942700 13.318900 -40.574400 2.455190 2.418079 -2.027876 -7.289871 2.490947 -3.286654 -8.331190 1.238782 -0.087529 4.184762 15.533978 -6.332584 3.661310 24.977312 36.321162 2.171800 11.008600 20.008800 -4.028153 -11.240849 1.470460 -72.585965 -5.150762 41.442547 24.131425 -27.327299 -7.516733 -0.879122 -1.902828 -72.300881 37.137973 -11.489232 -9.241700 -7.125000 0.000000 0.000000 8.272700 15.368800 -5.846500 5.212326 11.512766 2.066519 87.642231 -1.340767 30.661853 -28.331414 28.395216 -9.226046 -0.102698 2.406714 -36.863288 -12.361619 -48.054439 10.525700 7.125000 0.000000 0.000000 54.206600 -75.099500 -40.958200 
3.056984 17.632829 -0.056013 9.686413 4.975225 18.296230 -0.357873 -0.630236 -1.364767 -29.729770 -13.759475 -28.514738 1.200339 11.160983 31.716686 -2.492370 9.841148 0.374415 0.116800 2.202900 6.066800 -2.943413 -0.854191 0.085296 -9.050407 38.319226 -41.302861 -12.060188 -20.234536 66.188230 -2.773752 4.074744 24.882021 -4.910300 13.282100 -40.433900 2.562857 2.907918 -2.576851 -7.390162 3.092965 -3.766151 -8.414221 1.540583 -0.119209 4.182838 15.559290 -6.247462 3.674425 25.014599 36.348502 2.174100 11.029400 20.007600 -4.043881 -11.228901 1.469350 -72.611493 -5.076733 41.442189 24.112477 -27.312882 -7.508178 -0.895703 -1.885732 -72.237546 37.182479 -11.865036 -9.556100 -7.125000 0.000000 0.000000 8.231500 14.876900 -5.904400 5.202300 11.507612 2.068601 87.640600 -1.433680 30.865516 -28.360395 28.412935 -9.219148 -0.064808 2.392793 -37.282178 -13.568733 -47.252573 11.356200 7.125000 0.000000 0.000000 50.354800 -75.128100 -37.762000 
3.060676 17.637681 -0.055064 9.703127 5.080716 18.280325 -0.357260 -0.626467 -1.365665 -29.724702 -13.922676 -28.447459 1.206101 11.163659 31.740372 -2.458606 9.747988 0.362912 0.148700 2.485200 6.848500 -2.940901 -0.855280 0.085771 -8.981170 38.195919 -41.181678 -12.043940 -20.226499 66.160148 -2.783968 4.167746 24.784872 -4.981400 13.362900 -40.742500 2.618673 2.879713 -2.596593 -7.381767 3.053639 -3.745076 -8.444486 1.520257 -0.092768 4.175254 15.551175 -6.238535 3.694878 25.009016 36.384408 2.185400 11.026000 20.028300 -4.042352 -11.224679 1.466676 -72.633203 -5.029911 41.419549 24.151160 -27.361360 -7.535771 -0.839734 -2.007991 -72.244481 37.904089 -9.702996 -8.034100 -7.125000 0.000000 0.000000 9.150500 17.536800 -6.045900 5.201190 11.503665 2.067527 87.619983 -1.451491 31.056437 -28.375736 28.422253 -9.215257 -0.035971 2.385597 -37.784505 -14.740028 -46.688971 12.181500 7.125000 0.000000 0.000000 47.307800 -75.242500 -35.361200 
3.059305 17.638103 -0.053059 9.709503 5.130071 18.243037 -0.349668 -0.623041 -1.360056 -29.749637 -13.894779 -28.433525 1.230899 11.193994 31.837498 -2.490014 9.831944 0.299137 0.107400 2.113500 5.819600 -2.941901 -0.855914 0.085705 -8.922694 38.198626 -41.102776 -12.052730 -20.225132 66.172050 -2.774210 4.088400 24.857921 -4.885800 13.254100 -40.327100 2.595861 2.861036 -2.603687 -7.361071 3.033876 -3.700126 -8.413547 1.513838 -0.043382 4.090844 15.532936 -6.373517 3.757476 24.990389 36.416403 2.240100 11.000300 20.055100 -4.036815 -11.227030 1.465418 -72.638527 -5.017202 41.433446 24.200823 -27.413544 -7.565081 -0.891201 -1.903815 -72.290597 37.450841 -11.687304 -9.504600 -7.125000 0.000000 0.000000 8.451800 15.056800 -6.033100 5.203606 11.509429 2.070181 87.580987 -1.368887 30.931600 -28.313732 28.369405 -9.202620 -0.071161 2.400343 -37.342781 -13.532384 -47.474743 11.367000 7.125000 0.000000 0.000000 51.133200 -75.237200 -38.511400 
3.057828 17.638947 -0.051266 9.674687 5.155583 18.218273 -0.356511 -0.621788 -1.354460 -29.733575 -13.804416 -28.388655 1.227074 11.186407 31.816025 -2.526433 9.929166 0.277884 0.074300 1.759000 4.840100 -2.938085 -0.855476 0.085256 -8.861534 38.229055 -41.056145 -12.055513 -20.223081 66.158608 -2.763203 3.963387 25.021987 -4.724800 13.067000 -39.619800 2.620019 2.858385 -2.557151 -7.361407 3.026537 -3.728045 -8.422000 1.508723 -0.098361 4.099309 15.518381 -6.371427 3.784431 24.955235 36.413670 2.247400 10.990700 20.041700 -4.036203 -11.215705 1.464566 -72.615318 -4.920204 41.461481 24.249996 -27.472497 -7.595041 -0.867968 -1.924716 -72.357857 37.416284 -11.242382 -9.130400 -7.125000 0.000000 0.000000 8.513900 15.644200 -5.969800 5.204594 11.501579 2.066936 87.624533 -1.415636 30.804508 -28.257937 28.321622 -9.187318 -0.102358 2.409323 -36.878039 -12.329413 -48.065190 10.504100 7.125000 0.000000 0.000000 54.269700 -75.094000 -41.006100 
3.057195 17.639053 -0.052321 9.648019 5.135104 18.248505 -0.352680 -0.624779 -1.359488 -29.697767 -13.830827 -28.430625 1.228061 11.191643 31.826473 -2.517753 9.905386 0.243520 0.083700 1.866300 5.136200 -2.940715 -0.855185 0.085852 -8.884657 38.238542 -41.127072 -12.055163 -20.226331 66.160217 -2.767783 3.977387 25.048390 -4.735600 13.079700 -39.667400 2.639487 2.881067 -2.543685 -7.379748 3.051255 -3.787210 -8.444083 1.517837 -0.163456 4.222354 15.508566 -6.289806 3.750648 24.934863 36.434211 2.208600 11.002100 20.069800 -4.038656 -11.201837 1.463428 -72.605738 -4.840300 41.498092 24.260135 -27.491266 -7.603978 -0.851398 -1.954772 -72.363903 37.565187 -10.689302 -8.730600 -7.125000 0.000000 0.000000 8.723900 16.331900 -5.989200 5.203648 11.492538 2.063456 87.707088 -1.518999 30.763462 -28.273338 28.340568 -9.202383 -0.117065 2.411788 -36.874646 -12.039726 -48.222359 10.295200 7.125000 0.000000 0.000000 55.077500 -75.063500 -41.660700 
3.053925 17.634095 -0.057173 9.635030 5.086528 18.295227 -0.341835 -0.629836 -1.368381 -29.663594 -13.851620 -28.542493 1.235139 11.208313 31.860878 -2.512970 9.894946 0.250482 0.093400 1.970700 5.424800 -2.948153 -0.854195 0.087734 -8.944191 38.254731 -41.276410 -12.058812 -20.233632 66.191070 -2.779917 4.090772 24.936491 -4.873300 13.239700 -40.272300 2.595085 2.891882 -2.553471 -7.354337 3.068061 -3.796556 -8.399620 1.528643 -0.161890 4.219216 15.510446 -6.358132 3.756744 24.956939 36.481014 2.227000 11.002500 20.128400 -4.038815 -11.203687 1.462111 -72.644326 -4.876649 41.506482 24.254395 -27.478233 -7.598077 -0.844312 -1.957336 -72.240927 37.479089 -10.501275 -8.547900 -7.125000 0.000000 0.000000 8.698200 16.594400 -5.921000 5.201374 11.500393 2.065386 87.690194 -1.517579 30.934649 -28.337402 28.393922 -9.217799 -0.076792 2.400260 -37.372949 -13.486573 -47.470272 11.328700 7.125000 0.000000 0.000000 51.172900 -75.218200 -38.526500 
3.051499 17.631247 -0.059916 9.588493 5.094362 18.275130 -0.340018 -0.630074 -1.369273 -29.599981 -13.849534 -28.550318 1.242529 11.218094 31.884868 -2.533156 9.950746 0.283652 0.087200 1.904500 5.241700 -2.949717 -0.854426 0.090832 -8.874023 38.265912 -41.277993 -12.049816 -20.229748 66.197649 -2.804676 4.261363 24.866670 -4.990300 13.372800 -40.780600 2.608144 2.863586 -2.509834 -7.287918 3.032877 -3.760117 -8.360139 1.515440 -0.147714 4.054889 15.538779 -6.504620 3.806184 25.015930 36.466550 2.291000 10.996800 20.113100 -4.034139 -11.212079 1.461707 -72.697491 -4.904320 41.414006 24.286459 -27.499249 -7.608366 -0.826147 -1.944561 -72.109236 37.062583 -10.416616 -8.340900 -7.125000 0.000000 0.000000 8.419900 16.792000 -5.690600 5.197525 11.510326 2.066778 87.592703 -1.471960 31.260170 -28.394416 28.415324 -9.181526 0.023834 2.354320 -37.838373 -15.776079 -45.471749 12.752900 7.125000 0.000000 0.000000 42.337900 -74.857300 -31.036400 
3.051710 17.633567 -0.055591 9.570201 5.143071 18.230100 -0.365673 -0.624836 -1.361646 -29.572848 -13.826460 -28.397009 1.207639 11.162539 31.726438 -2.547237 9.987634 0.379868 0.087300 1.905700 5.245100 -2.936007 -0.853301 0.089786 -8.765059 38.252932 -41.105859 -12.019290 -20.211348 66.124533 -2.813541 4.332942 24.805397 -5.031800 13.419500 -40.959700 2.634232 2.852092 -2.526196 -7.254990 3.018769 -3.718029 -8.349546 1.509934 -0.101231 4.024004 15.555744 -6.526938 3.763096 25.054997 36.432024 2.278400 11.005500 20.101500 -4.036408 -11.223078 1.463075 -72.730232 -4.967307 41.367695 24.235876 -27.436135 -7.573671 -0.834363 -1.927976 -72.118585 36.889533 -10.693012 -8.510800 -7.125000 0.000000 0.000000 8.247800 16.463200 -5.631500 5.200252 11.516650 2.068059 87.522767 -1.437753 31.195987 -28.341048 28.343031 -9.116690 0.048386 2.331274 -37.259791 -15.278109 -44.893227 12.251200 7.125000 0.000000 0.000000 41.204000 -74.284600 -29.677500 
